<svg xmlns="http://www.w3.org/2000/svg" xmlns:xlink="http://www.w3.org/1999/xlink" width="793" zoomAndPan="magnify" viewBox="0 0 595.5 842.249979" height="1122" preserveAspectRatio="xMidYMid meet" version="1.0"><defs><g/><clipPath id="3992e02e59"><path d="M 179.257812 538.457031 L 330 538.457031 L 330 697.582031 L 179.257812 697.582031 Z M 179.257812 538.457031 " clip-rule="nonzero"/></clipPath><clipPath id="6928ff1298"><path d="M 248 538.457031 L 397.925781 538.457031 L 397.925781 697.582031 L 248 697.582031 Z M 248 538.457031 " clip-rule="nonzero"/></clipPath><clipPath id="c7bcd1efb1"><path d="M 300 644 L 360 644 L 360 697.582031 L 300 697.582031 Z M 300 644 " clip-rule="nonzero"/></clipPath><clipPath id="4691ca498a"><path d="M 214 167.015625 L 381 167.015625 L 381 337 L 214 337 Z M 214 167.015625 " clip-rule="nonzero"/></clipPath></defs><g clip-path="url(#3992e02e59)"><path fill="#008b8f" d="M 199.179688 684.453125 L 251.941406 684.453125 L 309.125 551.585938 L 256.363281 551.585938 Z M 260.550781 697.582031 L 179.269531 697.582031 L 247.753906 538.457031 L 329.035156 538.457031 L 260.550781 697.582031 " fill-opacity="1" fill-rule="nonzero"/></g><g clip-path="url(#6928ff1298)"><path fill="#00a6a6" d="M 329.429688 538.457031 L 248.148438 538.457031 L 300.320312 659.679688 L 359.804688 644.015625 L 357.710938 697.582031 L 397.914062 697.582031 L 329.429688 538.457031 " fill-opacity="1" fill-rule="nonzero"/></g><g clip-path="url(#c7bcd1efb1)"><path fill="#00ffff" d="M 300.320312 659.679688 L 357.710938 697.582031 L 359.804688 644.015625 Z M 300.320312 659.679688 " fill-opacity="1" fill-rule="nonzero"/></g><g fill="#03989e" fill-opacity="1"><g transform="translate(226.395405, 680.909502)"><g><path d="M 11.4375 -26.65625 L 8.53125 -19.90625 L 5.296875 -19.515625 L 1.015625 -9.515625 L 2.96875 -6.90625 L 0.078125 -0.171875 L -11.4375 -17.109375 L -8.78125 -23.296875 Z M 0.421875 -18.96875 L -5.578125 -18.265625 L -1.953125 -13.453125 Z M 0.421875 -18.96875 "/></g></g><g transform="translate(237.896159, 654.097499)"><g><path d="M 8.703125 -20.296875 L 0.75 -1.765625 L -15.125 -8.578125 L -12.265625 -15.234375 L -0.3125 -10.109375 L 4.78125 -21.984375 Z M 8.703125 -20.296875 "/></g></g><g transform="translate(246.788496, 633.366569)"><g><path d="M 5.484375 -11.84375 C 3.804688 -7.9375 1.765625 -5.398438 -0.640625 -4.234375 C -2.773438 -3.210938 -5.070312 -3.226562 -7.53125 -4.28125 C -10 -5.34375 -11.597656 -7 -12.328125 -9.25 C -13.148438 -11.789062 -12.722656 -15.015625 -11.046875 -18.921875 C -10.085938 -21.160156 -9.039062 -22.910156 -7.90625 -24.171875 C -6.769531 -25.441406 -5.585938 -26.316406 -4.359375 -26.796875 C -3.128906 -27.273438 -1.878906 -27.421875 -0.609375 -27.234375 L -3.671875 -20.125 C -5.023438 -19.820312 -6.066406 -18.816406 -6.796875 -17.109375 C -7.484375 -15.515625 -7.523438 -14.132812 -6.921875 -12.96875 C -6.441406 -12.039062 -5.691406 -11.359375 -4.671875 -10.921875 C -3.671875 -10.492188 -2.671875 -10.421875 -1.671875 -10.703125 C -0.429688 -11.085938 0.53125 -12.078125 1.21875 -13.671875 C 1.78125 -14.972656 2.085938 -15.992188 2.140625 -16.734375 C 2.191406 -17.484375 2.109375 -18.09375 1.890625 -18.5625 L 0.78125 -15.953125 L -2 -17.140625 L 1.875 -26.171875 L 9.796875 -22.78125 L 8.609375 -20.03125 L 6.828125 -20.109375 C 7.316406 -17.816406 6.867188 -15.0625 5.484375 -11.84375 Z M 5.484375 -11.84375 "/></g></g><g transform="translate(257.132061, 609.252351)"><g><path d="M 5.484375 -11.84375 C 3.804688 -7.9375 1.765625 -5.398438 -0.640625 -4.234375 C -2.773438 -3.210938 -5.078125 -3.234375 -7.546875 -4.296875 C -10.003906 -5.347656 -11.597656 -7 -12.328125 -9.25 C -13.148438 -11.789062 -12.722656 -15.015625 -11.046875 -18.921875 C -9.359375 -22.847656 -7.3125 -25.394531 -4.90625 -26.5625 C -2.769531 -27.582031 -0.472656 -27.566406 1.984375 -26.515625 C 4.453125 -25.453125 6.050781 -23.796875 6.78125 -21.546875 C 7.601562 -19.003906 7.171875 -15.769531 5.484375 -11.84375 Z M 1.21875 -13.671875 C 1.90625 -15.285156 1.957031 -16.660156 1.375 -17.796875 C 0.875 -18.722656 0.125 -19.40625 -0.875 -19.84375 C -1.894531 -20.269531 -2.894531 -20.34375 -3.875 -20.0625 C -5.144531 -19.707031 -6.125 -18.722656 -6.8125 -17.109375 C -7.5 -15.515625 -7.535156 -14.132812 -6.921875 -12.96875 C -6.453125 -12.039062 -5.707031 -11.363281 -4.6875 -10.9375 C -3.6875 -10.5 -2.679688 -10.421875 -1.671875 -10.703125 C -0.429688 -11.085938 0.53125 -12.078125 1.21875 -13.671875 Z M 1.21875 -13.671875 "/></g></g></g><g clip-path="url(#4691ca498a)"><path fill="#03989e" d="M 379.753906 329.417969 L 331.957031 233.390625 C 317.882812 245.964844 305.5 268.023438 306.1875 286.097656 L 320.652344 314.582031 C 321.171875 315.605469 322.054688 316.394531 323.132812 316.796875 L 374.074219 335.722656 C 377.953125 337.164062 381.597656 333.121094 379.753906 329.417969 Z M 293.976562 276.941406 C 293.855469 277.121094 293.742188 277.3125 293.640625 277.519531 L 275.496094 314.253906 C 274.980469 315.296875 274.082031 316.105469 272.992188 316.511719 L 221.113281 335.785156 C 217.253906 337.222656 213.617188 333.226562 215.40625 329.527344 L 292.417969 170.480469 C 294.070312 167.066406 298.929688 167.039062 300.621094 170.433594 L 330.320312 230.109375 C 314.035156 241.738281 301.28125 257.988281 293.976562 276.941406 " fill-opacity="1" fill-rule="nonzero"/></g><g fill="#03989e" fill-opacity="1"><g transform="translate(258.274134, 347.990738)"><g><path d="M 19.21875 -0.671875 C 19.332031 -0.453125 19.390625 -0.304688 19.390625 -0.234375 C 19.390625 -0.0546875 19.1875 0.03125 18.78125 0.03125 L 16.359375 0.03125 C 16.265625 0.03125 16.171875 -0.046875 16.078125 -0.203125 C 15.992188 -0.359375 15.914062 -0.515625 15.84375 -0.671875 C 15.78125 -0.828125 15.722656 -0.960938 15.671875 -1.078125 C 15.566406 -1.304688 15.359375 -1.820312 15.046875 -2.625 C 14.742188 -3.4375 14.515625 -4.078125 14.359375 -4.546875 C 14.296875 -4.773438 14.160156 -5.109375 13.953125 -5.546875 C 13.753906 -5.984375 13.609375 -6.289062 13.515625 -6.46875 C 13.429688 -6.738281 13.347656 -6.914062 13.265625 -7 C 13.191406 -7.09375 13.078125 -7.140625 12.921875 -7.140625 C 12.753906 -7.140625 12.550781 -7.128906 12.3125 -7.109375 C 12.082031 -7.085938 11.832031 -7.066406 11.5625 -7.046875 C 11.382812 -7.003906 10.820312 -6.984375 9.875 -6.984375 C 9.226562 -6.984375 8.585938 -6.957031 7.953125 -6.90625 C 7.753906 -6.882812 7.394531 -6.875 6.875 -6.875 L 5.09375 -6.90625 C 4.976562 -6.90625 4.890625 -6.859375 4.828125 -6.765625 C 4.773438 -6.679688 4.738281 -6.578125 4.71875 -6.453125 C 4.695312 -6.328125 4.675781 -6.234375 4.65625 -6.171875 L 4.453125 -5.328125 C 4.378906 -5.015625 4.289062 -4.648438 4.1875 -4.234375 C 4.09375 -3.816406 4.007812 -3.425781 3.9375 -3.0625 L 3.578125 -1.625 L 3.296875 -0.640625 C 3.234375 -0.367188 3.171875 -0.191406 3.109375 -0.109375 C 3.054688 -0.0351562 2.972656 0 2.859375 0 L 0.875 0 C 0.757812 0 0.703125 -0.046875 0.703125 -0.140625 C 0.703125 -0.179688 0.75 -0.335938 0.84375 -0.609375 C 1.019531 -1.035156 1.175781 -1.460938 1.3125 -1.890625 C 2.144531 -4.671875 2.640625 -6.488281 2.796875 -7.34375 C 3.003906 -8.46875 3.421875 -9.921875 4.046875 -11.703125 C 4.242188 -12.460938 4.4375 -13.160156 4.625 -13.796875 C 4.6875 -14.109375 4.785156 -14.488281 4.921875 -14.9375 C 5.347656 -16.507812 5.773438 -17.984375 6.203125 -19.359375 L 7.046875 -22.046875 C 7.222656 -22.742188 7.445312 -23.460938 7.71875 -24.203125 C 7.851562 -24.546875 8.007812 -24.628906 8.1875 -24.453125 C 8.320312 -24.359375 8.421875 -24.195312 8.484375 -23.96875 C 8.554688 -23.75 8.601562 -23.59375 8.625 -23.5 C 8.695312 -23.226562 9.296875 -21.878906 10.421875 -19.453125 C 10.867188 -18.535156 11.351562 -17.332031 11.875 -15.84375 C 12.09375 -15.195312 12.707031 -13.796875 13.71875 -11.640625 C 14.238281 -10.578125 14.578125 -9.84375 14.734375 -9.4375 C 15.097656 -8.65625 16.066406 -6.742188 17.640625 -3.703125 L 18.046875 -2.859375 C 18.554688 -1.710938 18.945312 -0.984375 19.21875 -0.671875 Z M 10.390625 -11.796875 C 10.546875 -11.816406 10.675781 -11.828125 10.78125 -11.828125 C 10.894531 -11.828125 10.984375 -11.835938 11.046875 -11.859375 C 11.117188 -11.890625 11.15625 -11.925781 11.15625 -11.96875 C 11.15625 -12.007812 11.125 -12.097656 11.0625 -12.234375 C 10.945312 -12.441406 10.6875 -13.007812 10.28125 -13.9375 C 9.875 -14.875 9.59375 -15.578125 9.4375 -16.046875 C 9.21875 -16.585938 9.046875 -17.035156 8.921875 -17.390625 C 8.796875 -17.753906 8.695312 -18.003906 8.625 -18.140625 C 8.582031 -18.253906 8.53125 -18.363281 8.46875 -18.46875 C 8.414062 -18.582031 8.367188 -18.671875 8.328125 -18.734375 C 8.285156 -18.804688 8.238281 -18.84375 8.1875 -18.84375 C 8.125 -18.84375 8.050781 -18.675781 7.96875 -18.34375 C 7.894531 -18.007812 7.832031 -17.75 7.78125 -17.5625 C 7.382812 -16.257812 7.09375 -15.269531 6.90625 -14.59375 C 6.820312 -14.257812 6.691406 -13.847656 6.515625 -13.359375 C 6.347656 -12.878906 6.234375 -12.550781 6.171875 -12.375 C 6.097656 -12.144531 6.0625 -11.960938 6.0625 -11.828125 C 6.0625 -11.703125 6.164062 -11.640625 6.375 -11.640625 C 6.84375 -11.640625 7.566406 -11.65625 8.546875 -11.6875 C 9.523438 -11.71875 10.140625 -11.753906 10.390625 -11.796875 Z M 10.390625 -11.796875 "/></g></g></g><g fill="#03989e" fill-opacity="1"><g transform="translate(277.962589, 347.990738)"><g><path d="M 4.984375 -21.375 C 4.878906 -18.226562 4.828125 -16.519531 4.828125 -16.25 L 4.78125 -11.4375 C 4.78125 -11.007812 4.796875 -10.632812 4.828125 -10.3125 L 4.859375 -8.296875 C 4.859375 -7.828125 4.847656 -7.535156 4.828125 -7.421875 C 4.796875 -7.285156 4.785156 -7.160156 4.796875 -7.046875 C 4.816406 -6.929688 4.828125 -6.851562 4.828125 -6.8125 C 4.828125 -6.71875 4.835938 -6.660156 4.859375 -6.640625 L 5.671875 -6.578125 C 6.390625 -6.523438 6.984375 -6.515625 7.453125 -6.546875 L 13.6875 -6.609375 C 13.6875 -6.609375 14.867188 -6.570312 17.234375 -6.5 L 18.8125 -6.46875 C 19.0625 -6.445312 19.1875 -6.378906 19.1875 -6.265625 C 19.1875 -6.222656 19.175781 -6.164062 19.15625 -6.09375 C 19.132812 -6.03125 19.125 -5.96875 19.125 -5.90625 L 19.125 -4.34375 C 19.125 -3.945312 19.191406 -3.09375 19.328125 -1.78125 L 19.453125 -0.375 L 19.484375 -0.203125 C 19.484375 -0.0859375 19.425781 -0.015625 19.3125 0.015625 C 19.207031 0.046875 19.007812 0.0625 18.71875 0.0625 L 16.25 0.03125 L 12.078125 -0.03125 C 11.515625 -0.03125 10.726562 0 9.71875 0.0625 C 9.257812 0.0820312 8.753906 0.101562 8.203125 0.125 C 7.660156 0.15625 7.117188 0.171875 6.578125 0.171875 L 6 0.140625 C 5.863281 0.109375 5.601562 0.09375 5.21875 0.09375 L 3.703125 0.140625 C 3.429688 0.160156 3.082031 0.171875 2.65625 0.171875 C 2.363281 0.171875 2.191406 0.128906 2.140625 0.046875 C 2.085938 -0.0234375 2.066406 -0.140625 2.078125 -0.296875 C 2.085938 -0.460938 2.09375 -0.597656 2.09375 -0.703125 C 2.09375 -1.203125 2.125 -2.054688 2.1875 -3.265625 L 2.296875 -6.75 L 2.21875 -8.328125 C 2.195312 -8.640625 2.175781 -9.015625 2.15625 -9.453125 C 2.132812 -9.890625 2.125 -10.347656 2.125 -10.828125 C 2.125 -10.054688 2.191406 -10.820312 2.328125 -13.125 C 2.460938 -15.4375 2.53125 -16.863281 2.53125 -17.40625 L 2.5 -21.203125 L 2.421875 -23.359375 L 2.421875 -23.40625 C 2.421875 -23.582031 2.546875 -23.671875 2.796875 -23.671875 L 3.265625 -23.640625 C 3.378906 -23.640625 3.523438 -23.632812 3.703125 -23.625 C 3.890625 -23.613281 4.171875 -23.609375 4.546875 -23.609375 L 4.859375 -23.609375 C 4.992188 -23.609375 5.0625 -23.515625 5.0625 -23.328125 Z M 4.984375 -21.375 "/></g></g></g><g fill="#03989e" fill-opacity="1"><g transform="translate(297.482481, 347.990738)"><g><path d="M 9.234375 -23.875 C 10.765625 -23.875 11.925781 -23.613281 12.71875 -23.09375 C 13.519531 -22.582031 14.078125 -22.101562 14.390625 -21.65625 C 14.710938 -21.21875 14.914062 -20.957031 15 -20.875 C 15.1875 -20.664062 15.28125 -20.453125 15.28125 -20.234375 C 15.28125 -19.960938 15.175781 -19.722656 14.96875 -19.515625 C 14.769531 -19.316406 14.515625 -19.09375 14.203125 -18.84375 C 13.898438 -18.601562 13.628906 -18.390625 13.390625 -18.203125 C 13.273438 -18.140625 13.171875 -18.109375 13.078125 -18.109375 C 12.878906 -18.109375 12.675781 -18.207031 12.46875 -18.40625 C 12.425781 -18.457031 12.101562 -18.835938 11.5 -19.546875 C 10.894531 -20.253906 9.984375 -20.609375 8.765625 -20.609375 C 7.847656 -20.609375 7.050781 -20.117188 6.375 -19.140625 C 5.695312 -18.160156 5.179688 -16.976562 4.828125 -15.59375 C 4.484375 -14.207031 4.3125 -12.921875 4.3125 -11.734375 C 4.3125 -10.492188 4.488281 -9.175781 4.84375 -7.78125 C 5.207031 -6.394531 5.785156 -5.207031 6.578125 -4.21875 C 7.378906 -3.226562 8.390625 -2.734375 9.609375 -2.734375 C 11.222656 -2.734375 12.457031 -3.363281 13.3125 -4.625 C 13.675781 -5.207031 13.914062 -5.847656 14.03125 -6.546875 L 13.046875 -6.546875 L 11.53125 -6.578125 L 8.125 -6.609375 C 7.738281 -6.609375 7.546875 -6.785156 7.546875 -7.140625 L 7.546875 -8.46875 C 7.546875 -8.6875 7.578125 -8.820312 7.640625 -8.875 C 7.710938 -8.9375 7.804688 -8.96875 7.921875 -8.96875 L 9.46875 -8.96875 L 16.390625 -9.140625 C 16.585938 -9.140625 16.738281 -9.035156 16.84375 -8.828125 C 16.945312 -8.628906 16.984375 -8.363281 16.953125 -8.03125 C 16.953125 -7.238281 16.804688 -6.21875 16.515625 -4.96875 C 16.222656 -3.726562 15.503906 -2.515625 14.359375 -1.328125 C 13.210938 -0.148438 11.503906 0.4375 9.234375 0.4375 C 7.546875 0.4375 6.101562 -0.203125 4.90625 -1.484375 C 3.707031 -2.765625 2.804688 -4.410156 2.203125 -6.421875 C 1.609375 -8.429688 1.3125 -10.492188 1.3125 -12.609375 C 1.3125 -14.585938 1.675781 -16.441406 2.40625 -18.171875 C 3.132812 -19.898438 4.113281 -21.28125 5.34375 -22.3125 C 6.570312 -23.351562 7.867188 -23.875 9.234375 -23.875 Z M 9.234375 -23.875 "/></g></g></g><g fill="#03989e" fill-opacity="1"><g transform="translate(315.451572, 347.990738)"><g><path d="M 14.734375 -23.53125 C 16.085938 -22.632812 17.171875 -21.421875 17.984375 -19.890625 C 18.804688 -18.359375 19.378906 -16.867188 19.703125 -15.421875 C 20.035156 -13.972656 20.203125 -12.832031 20.203125 -12 C 20.203125 -10.601562 19.976562 -8.984375 19.53125 -7.140625 C 19.09375 -5.304688 18.15625 -3.59375 16.71875 -2 C 15.28125 -0.414062 13.203125 0.375 10.484375 0.375 C 6.753906 0.375 4.101562 -1.796875 2.53125 -6.140625 C 1.832031 -8.097656 1.4375 -10.273438 1.34375 -12.671875 C 1.34375 -14.648438 1.757812 -16.53125 2.59375 -18.3125 C 3.425781 -20.101562 4.519531 -21.539062 5.875 -22.625 C 7.238281 -23.707031 8.640625 -24.25 10.078125 -24.25 C 11.378906 -24.25 12.347656 -24.210938 12.984375 -24.140625 C 13.628906 -24.078125 14.210938 -23.875 14.734375 -23.53125 Z M 10.3125 -1.515625 C 12.695312 -1.515625 14.472656 -2.507812 15.640625 -4.5 C 16.816406 -6.488281 17.40625 -8.988281 17.40625 -12 C 17.40625 -13.84375 17.128906 -15.546875 16.578125 -17.109375 C 16.023438 -18.671875 15.25 -19.914062 14.25 -20.84375 C 13.25 -21.78125 12.097656 -22.25 10.796875 -22.25 C 10.679688 -22.25 10.378906 -22.25 9.890625 -22.25 C 9.410156 -22.25 8.988281 -22.171875 8.625 -22.015625 C 8.269531 -21.859375 7.945312 -21.625 7.65625 -21.3125 C 6.914062 -20.570312 6.289062 -19.890625 5.78125 -19.265625 C 5.28125 -18.648438 4.773438 -17.734375 4.265625 -16.515625 C 3.753906 -15.304688 3.5 -13.90625 3.5 -12.3125 C 3.5 -10.414062 3.726562 -8.648438 4.1875 -7.015625 C 4.65625 -5.390625 5.394531 -4.066406 6.40625 -3.046875 C 7.414062 -2.023438 8.71875 -1.515625 10.3125 -1.515625 Z M 10.3125 -1.515625 "/></g></g></g></svg>